<svg width="332" height="357" version="1.1" xmlns="http://www.w3.org/2000/svg" desc="Created with imagetracer.js version 1.2.6" ><path fill="rgb(0,0,0)" stroke="rgb(0,0,0)" stroke-width="1" opacity="0" d="M 0 0 L 164 0.5 L 108 33.5 L 108 68.5 L 110.5 69 L 166.5 37 L 215.5 66 L 224 69 L 224 33.5 L 222.5 32 L 168 0.5 L 332 0 L 332 150.5 L 330.5 151 L 307.5 137 L 301 135 L 301 249.5 L 302.5 250 L 331.5 233 L 332 357 L 216 356.5 L 284 316.5 L 284 281.5 L 281.5 281 L 184 337.5 L 185.5 341 L 213 356.5 L 0 357 L 0.5 233 L 23.5 247 L 31 250 L 31 135.5 L 28.5 135 L 0 151 L 0 0 Z M 164 56 L 77 107 Q 73 106 75 110 L 159 158 Q 161 157 160 160 L 96 196 L 96 200 L 98 203 L 101 204 L 101 203 L 101 201 L 115 211 Q 117 210 116 213 L 120 216 L 127 218 L 147 231 L 203 269 L 204 272 L 199 275 L 196 275 L 195 278 L 193 277 L 193 279 L 192 278 L 189 278 L 173 286 Q 170 287 172 289 L 171 288 L 164 291 Q 162 288 158 289 L 144 279 L 82 244 L 79 242 Q 81 235 78 234 L 78 199 L 79 195 L 79 193 L 78 188 L 78 175 L 79 174 L 51 156 L 47 157 L 48 161 L 47 163 Q 46 167 48 169 L 48 262 L 165 329 L 170 328 L 283 262 L 284 262 L 284 124 L 169 56 L 164 56 Z M 48 281 L 48 317 L 116 356 L 121 356 L 147 341 L 148 338 L 59 285 L 48 281 Z " /><path fill="rgb(0,0,0)" stroke="rgb(0,0,0)" stroke-width="1" opacity="0" d="M 164.5 93 L 167.5 93 L 240.5 136 L 253 142 L 253 241.5 L 251.5 243 L 234.5 253 L 209.5 235 L 207 235 Q 208.3 232 204.5 233 L 156 199.5 L 223 160.5 Q 223.8 156.8 221.5 156 L 139 108.5 L 164.5 93 Z " /><path fill="rgb(151,151,151)" stroke="rgb(151,151,151)" stroke-width="1" opacity="0.9568627450980393" d="M 109.5 33 L 109 34.5 L 108.5 58 L 108 34.5 L 109.5 33 Z " /><path fill="rgb(151,151,151)" stroke="rgb(151,151,151)" stroke-width="1" opacity="0.9568627450980393" d="M 222.5 33 L 224 34.5 L 224 68.5 L 223 68.5 L 223 34.5 L 222.5 33 Z " /><path fill="rgb(151,151,151)" stroke="rgb(151,151,151)" stroke-width="1" opacity="0.9568627450980393" d="M 108.5 59 L 109 66.5 L 108 66.5 L 108.5 59 Z " /><path fill="rgb(151,151,151)" stroke="rgb(151,151,151)" stroke-width="1" opacity="0.9568627450980393" d="M 283.5 124 L 284 259.5 L 283 259.5 L 283.5 124 Z " /><path fill="rgb(151,151,151)" stroke="rgb(151,151,151)" stroke-width="1" opacity="0.9568627450980393" d="M 30.5 135 L 31 250 L 29 249.5 L 30 248.5 L 30.5 135 Z " /><path fill="rgb(151,151,151)" stroke="rgb(151,151,151)" stroke-width="1" opacity="0.9568627450980393" d="M 301.5 135 L 302 246.5 L 301 246.5 L 301.5 135 Z " /><path fill="rgb(151,151,151)" stroke="rgb(151,151,151)" stroke-width="1" opacity="0.9568627450980393" d="M 253.5 142 L 254 242.5 L 252 243.5 L 253 242.5 L 253.5 142 Z " /><path fill="rgb(151,151,151)" stroke="rgb(151,151,151)" stroke-width="1" opacity="0.9568627450980393" d="M 330.5 151 L 332 152.5 L 332 232.5 L 331 232.5 L 331 152.5 L 330.5 151 Z " /><path fill="rgb(151,151,151)" stroke="rgb(151,151,151)" stroke-width="1" opacity="0.9568627450980393" d="M 0.5 152 L 1 232.5 L 0 232.5 L 0.5 152 Z " /><path fill="rgb(151,151,151)" stroke="rgb(151,151,151)" stroke-width="1" opacity="0.9568627450980393" d="M 48.5 157 L 52 158.5 L 50.5 159 L 48.5 157 Z " /><path fill="rgb(151,151,151)" stroke="rgb(151,151,151)" stroke-width="1" opacity="0.9568627450980393" d="M 53.5 159 L 73 170.5 L 71.5 170 Q 60 165.8 53.5 159 Z " /><path fill="rgb(151,151,151)" stroke="rgb(151,151,151)" stroke-width="1" opacity="0.9568627450980393" d="M 48.5 170 L 49 259.5 L 48 259.5 L 48.5 170 Z " /><path fill="rgb(151,151,151)" stroke="rgb(151,151,151)" stroke-width="1" opacity="0.9568627450980393" d="M 74.5 171 L 78 173.5 L 76.5 173 L 74.5 171 Z " /><path fill="rgb(151,151,151)" stroke="rgb(151,151,151)" stroke-width="1" opacity="0.9568627450980393" d="M 78.5 194 L 79 197.5 L 78 197.5 L 78.5 194 Z " /><path fill="rgb(151,151,151)" stroke="rgb(151,151,151)" stroke-width="1" opacity="0.9568627450980393" d="M 157.5 201 L 158.5 203 L 157.5 201 Z " /><path fill="rgb(151,151,151)" stroke="rgb(151,151,151)" stroke-width="1" opacity="0.9568627450980393" d="M 163.5 205 L 164.5 207 L 163.5 205 Z " /><path fill="rgb(151,151,151)" stroke="rgb(151,151,151)" stroke-width="1" opacity="0.9568627450980393" d="M 172.5 211 L 178 215.5 L 175.5 214 L 172.5 211 Z " /><path fill="rgb(151,151,151)" stroke="rgb(151,151,151)" stroke-width="1" opacity="0.9568627450980393" d="M 179.5 216 L 180.5 218 L 179.5 216 Z " /><path fill="rgb(151,151,151)" stroke="rgb(151,151,151)" stroke-width="1" opacity="0.9568627450980393" d="M 126.5 217 L 127.5 219 L 126.5 217 Z " /><path fill="rgb(151,151,151)" stroke="rgb(151,151,151)" stroke-width="1" opacity="0.9568627450980393" d="M 182.5 218 L 183.5 220 L 182.5 218 Z " /><path fill="rgb(151,151,151)" stroke="rgb(151,151,151)" stroke-width="1" opacity="0.9568627450980393" d="M 132.5 221 L 136 223.5 L 133.5 222 L 132.5 221 Z " /><path fill="rgb(151,151,151)" stroke="rgb(151,151,151)" stroke-width="1" opacity="0.9568627450980393" d="M 137.5 224 L 138.5 226 L 137.5 224 Z " /><path fill="rgb(151,151,151)" stroke="rgb(151,151,151)" stroke-width="1" opacity="0.9568627450980393" d="M 191.5 224 L 192.5 226 L 191.5 224 Z " /><path fill="rgb(151,151,151)" stroke="rgb(151,151,151)" stroke-width="1" opacity="0.9568627450980393" d="M 140.5 226 L 141.5 228 L 140.5 226 Z " /><path fill="rgb(151,151,151)" stroke="rgb(151,151,151)" stroke-width="1" opacity="0.9568627450980393" d="M 194.5 226 L 195.5 228 L 194.5 226 Z " /><path fill="rgb(151,151,151)" stroke="rgb(151,151,151)" stroke-width="1" opacity="0.9568627450980393" d="M 197.5 228 L 198.5 230 L 197.5 228 Z " /><path fill="rgb(151,151,151)" stroke="rgb(151,151,151)" stroke-width="1" opacity="0.9568627450980393" d="M 200.5 230 L 201.5 232 L 200.5 230 Z " /><path fill="rgb(151,151,151)" stroke="rgb(151,151,151)" stroke-width="1" opacity="0.9568627450980393" d="M 149.5 232 L 150.5 234 L 149.5 232 Z " /><path fill="rgb(151,151,151)" stroke="rgb(151,151,151)" stroke-width="1" opacity="0.9568627450980393" d="M 203.5 232 L 204.5 234 L 203.5 232 Z " /><path fill="rgb(151,151,151)" stroke="rgb(151,151,151)" stroke-width="1" opacity="0.9568627450980393" d="M 78.5 234 L 79 237.5 L 78 237.5 L 78.5 234 Z " /><path fill="rgb(151,151,151)" stroke="rgb(151,151,151)" stroke-width="1" opacity="0.9568627450980393" d="M 206.5 234 L 207.5 236 L 206.5 234 Z " /><path fill="rgb(151,151,151)" stroke="rgb(151,151,151)" stroke-width="1" opacity="0.9568627450980393" d="M 213.5 239 L 214.5 241 L 213.5 239 Z " /><path fill="rgb(151,151,151)" stroke="rgb(151,151,151)" stroke-width="1" opacity="0.9568627450980393" d="M 216.5 241 L 217.5 243 L 216.5 241 Z " /><path fill="rgb(151,151,151)" stroke="rgb(151,151,151)" stroke-width="1" opacity="0.9568627450980393" d="M 164.5 242 L 165.5 244 L 164.5 242 Z " /><path fill="rgb(151,151,151)" stroke="rgb(151,151,151)" stroke-width="1" opacity="0.9568627450980393" d="M 219.5 243 L 220.5 245 L 219.5 243 Z " /><path fill="rgb(151,151,151)" stroke="rgb(151,151,151)" stroke-width="1" opacity="0.9568627450980393" d="M 82.5 245 L 83.5 247 L 82.5 245 Z " /><path fill="rgb(151,151,151)" stroke="rgb(151,151,151)" stroke-width="1" opacity="0.9568627450980393" d="M 301.5 248 L 302.5 250 Q 299.7 250.7 301.5 248 Z " /><path fill="rgb(151,151,151)" stroke="rgb(151,151,151)" stroke-width="1" opacity="0.9568627450980393" d="M 89.5 249 L 90.5 251 L 89.5 249 Z " /><path fill="rgb(151,151,151)" stroke="rgb(151,151,151)" stroke-width="1" opacity="0.9568627450980393" d="M 228.5 249 L 229.5 251 L 228.5 249 Z " /><path fill="rgb(151,151,151)" stroke="rgb(151,151,151)" stroke-width="1" opacity="0.9568627450980393" d="M 176.5 250 L 177.5 252 L 176.5 250 Z " /><path fill="rgb(151,151,151)" stroke="rgb(151,151,151)" stroke-width="1" opacity="0.9568627450980393" d="M 92.5 251 L 93.5 253 L 92.5 251 Z " /><path fill="rgb(151,151,151)" stroke="rgb(151,151,151)" stroke-width="1" opacity="0.9568627450980393" d="M 231.5 251 L 232.5 253 L 231.5 251 Z " /><path fill="rgb(151,151,151)" stroke="rgb(151,151,151)" stroke-width="1" opacity="0.9568627450980393" d="M 179.5 252 L 184 255.5 L 181.5 254 L 179.5 252 Z " /><path fill="rgb(151,151,151)" stroke="rgb(151,151,151)" stroke-width="1" opacity="0.9568627450980393" d="M 96.5 253 L 97.5 255 L 96.5 253 Z " /><path fill="rgb(151,151,151)" stroke="rgb(151,151,151)" stroke-width="1" opacity="0.9568627450980393" d="M 101.5 256 L 102.5 258 L 101.5 256 Z " /><path fill="rgb(151,151,151)" stroke="rgb(151,151,151)" stroke-width="1" opacity="0.9568627450980393" d="M 185.5 256 L 186.5 258 L 185.5 256 Z " /><path fill="rgb(151,151,151)" stroke="rgb(151,151,151)" stroke-width="1" opacity="0.9568627450980393" d="M 188.5 258 L 189.5 260 L 188.5 258 Z " /><path fill="rgb(151,151,151)" stroke="rgb(151,151,151)" stroke-width="1" opacity="0.9568627450980393" d="M 106.5 259 L 107.5 261 L 106.5 259 Z " /><path fill="rgb(151,151,151)" stroke="rgb(151,151,151)" stroke-width="1" opacity="0.9568627450980393" d="M 191.5 260 L 192.5 262 L 191.5 260 Z " /><path fill="rgb(151,151,151)" stroke="rgb(151,151,151)" stroke-width="1" opacity="0.9568627450980393" d="M 194.5 262 L 195.5 264 L 194.5 262 Z " /><path fill="rgb(151,151,151)" stroke="rgb(151,151,151)" stroke-width="1" opacity="0.9568627450980393" d="M 197.5 264 L 198.5 266 L 197.5 264 Z " /><path fill="rgb(151,151,151)" stroke="rgb(151,151,151)" stroke-width="1" opacity="0.9568627450980393" d="M 200.5 266 L 201.5 268 L 200.5 266 Z " /><path fill="rgb(151,151,151)" stroke="rgb(151,151,151)" stroke-width="1" opacity="0.9568627450980393" d="M 127.5 271 L 128.5 273 L 127.5 271 Z " /><path fill="rgb(151,151,151)" stroke="rgb(151,151,151)" stroke-width="1" opacity="0.9568627450980393" d="M 48 281 L 50 281.5 L 49 282.5 L 49 315.5 L 49.5 317 L 48 315.5 L 48 281 Z " /><path fill="rgb(151,151,151)" stroke="rgb(151,151,151)" stroke-width="1" opacity="0.9568627450980393" d="M 282.5 281 L 284 281.5 L 284 315.5 L 282 316.5 L 283 315.5 L 283 282.5 L 282.5 281 Z " /><path fill="rgb(151,151,151)" stroke="rgb(151,151,151)" stroke-width="1" opacity="0.9568627450980393" d="M 146.5 282 L 147.5 284 L 146.5 282 Z " /><path fill="rgb(159,158,158)" stroke="rgb(159,158,158)" stroke-width="1" opacity="0.996078431372549" d="M 193.5 16 L 194.5 18 L 193.5 16 Z " /><path fill="rgb(159,158,158)" stroke="rgb(159,158,158)" stroke-width="1" opacity="0.996078431372549" d="M 158.5 60 L 157.5 62 L 158.5 60 Z " /><path fill="rgb(159,158,158)" stroke="rgb(159,158,158)" stroke-width="1" opacity="0.996078431372549" d="M 206.5 79 L 207.5 81 L 206.5 79 Z " /><path fill="rgb(159,158,158)" stroke="rgb(159,158,158)" stroke-width="1" opacity="0.996078431372549" d="M 80.5 105 L 79.5 107 L 80.5 105 Z " /><path fill="rgb(159,158,158)" stroke="rgb(159,158,158)" stroke-width="1" opacity="0.996078431372549" d="M 251.5 105 L 252.5 107 L 251.5 105 Z " /><path fill="rgb(159,158,158)" stroke="rgb(159,158,158)" stroke-width="1" opacity="0.996078431372549" d="M 143.5 112 L 144.5 114 L 143.5 112 Z " /><path fill="rgb(159,158,158)" stroke="rgb(159,158,158)" stroke-width="1" opacity="0.996078431372549" d="M 277.5 120 L 278.5 122 L 277.5 120 Z " /><path fill="rgb(159,158,158)" stroke="rgb(159,158,158)" stroke-width="1" opacity="0.996078431372549" d="M 169.5 127 L 170.5 129 L 169.5 127 Z " /><path fill="rgb(159,158,158)" stroke="rgb(159,158,158)" stroke-width="1" opacity="0.996078431372549" d="M 126.5 137 L 127.5 139 L 126.5 137 Z " /><path fill="rgb(159,158,158)" stroke="rgb(159,158,158)" stroke-width="1" opacity="0.996078431372549" d="M 188.5 138 L 189.5 140 L 188.5 138 Z " /><path fill="rgb(159,158,158)" stroke="rgb(159,158,158)" stroke-width="1" opacity="0.996078431372549" d="M 48.5 159 L 49 163.5 L 48 163.5 L 48.5 159 Z " /><path fill="rgb(159,158,158)" stroke="rgb(159,158,158)" stroke-width="1" opacity="0.996078431372549" d="M 48.5 167 L 49 169.5 L 48 169.5 L 48.5 167 Z " /><path fill="rgb(159,158,158)" stroke="rgb(159,158,158)" stroke-width="1" opacity="0.996078431372549" d="M 76.5 173 L 78 174.5 L 78 188.5 L 77 188.5 L 77 174.5 L 76.5 173 Z " /><path fill="rgb(159,158,158)" stroke="rgb(159,158,158)" stroke-width="1" opacity="0.996078431372549" d="M 129.5 178 L 128.5 180 L 129.5 178 Z " /><path fill="rgb(159,158,158)" stroke="rgb(159,158,158)" stroke-width="1" opacity="0.996078431372549" d="M 77.5 192 L 78 194.5 L 77 194.5 L 77.5 192 Z " /><path fill="rgb(159,158,158)" stroke="rgb(159,158,158)" stroke-width="1" opacity="0.996078431372549" d="M 101.5 194 L 100.5 196 L 101.5 194 Z " /><path fill="rgb(159,158,158)" stroke="rgb(159,158,158)" stroke-width="1" opacity="0.996078431372549" d="M 77.5 197 L 78 234.5 L 77 234.5 L 77.5 197 Z " /><path fill="rgb(159,158,158)" stroke="rgb(159,158,158)" stroke-width="1" opacity="0.996078431372549" d="M 127.5 217 L 133 220.5 L 131.5 221 L 127.5 217 Z " /><path fill="rgb(159,158,158)" stroke="rgb(159,158,158)" stroke-width="1" opacity="0.996078431372549" d="M 135.5 222 L 136.5 224 L 135.5 222 Z " /><path fill="rgb(159,158,158)" stroke="rgb(159,158,158)" stroke-width="1" opacity="0.996078431372549" d="M 142.5 227 L 143.5 229 L 142.5 227 Z " /><path fill="rgb(159,158,158)" stroke="rgb(159,158,158)" stroke-width="1" opacity="0.996078431372549" d="M 145.5 229 L 146.5 231 L 145.5 229 Z " /><path fill="rgb(159,158,158)" stroke="rgb(159,158,158)" stroke-width="1" opacity="0.996078431372549" d="M 77.5 237 L 78 240.5 L 77 240.5 L 77.5 237 Z " /><path fill="rgb(159,158,158)" stroke="rgb(159,158,158)" stroke-width="1" opacity="0.996078431372549" d="M 78.5 243 L 79.5 245 L 78.5 243 Z " /><path fill="rgb(159,158,158)" stroke="rgb(159,158,158)" stroke-width="1" opacity="0.996078431372549" d="M 81.5 245 L 82.5 247 L 81.5 245 Z " /><path fill="rgb(159,158,158)" stroke="rgb(159,158,158)" stroke-width="1" opacity="0.996078431372549" d="M 236.5 252 L 235.5 254 L 233 253.5 L 236.5 252 Z " /><path fill="rgb(159,158,158)" stroke="rgb(159,158,158)" stroke-width="1" opacity="0.996078431372549" d="M 95.5 253 L 96.5 255 L 95.5 253 Z " /><path fill="rgb(159,158,158)" stroke="rgb(159,158,158)" stroke-width="1" opacity="0.996078431372549" d="M 100.5 256 L 101.5 258 L 100.5 256 Z " /><path fill="rgb(159,158,158)" stroke="rgb(159,158,158)" stroke-width="1" opacity="0.996078431372549" d="M 279.5 262 L 278.5 264 L 279.5 262 Z " /><path fill="rgb(159,158,158)" stroke="rgb(159,158,158)" stroke-width="1" opacity="0.996078431372549" d="M 275.5 285 L 274.5 287 L 275.5 285 Z " /><path fill="rgb(159,158,158)" stroke="rgb(159,158,158)" stroke-width="1" opacity="0.996078431372549" d="M 242.5 304 L 241.5 306 L 242.5 304 Z " /><path fill="rgb(159,158,158)" stroke="rgb(159,158,158)" stroke-width="1" opacity="0.996078431372549" d="M 108.5 315 L 109.5 317 L 108.5 315 Z " /><path fill="rgb(159,158,158)" stroke="rgb(159,158,158)" stroke-width="1" opacity="0.996078431372549" d="M 223.5 315 L 222.5 317 L 223.5 315 Z " /><path fill="rgb(159,158,158)" stroke="rgb(159,158,158)" stroke-width="1" opacity="0.996078431372549" d="M 149.5 318 L 150.5 320 L 149.5 318 Z " /><path fill="rgb(159,158,158)" stroke="rgb(159,158,158)" stroke-width="1" opacity="0.996078431372549" d="M 170.5 325 L 169.5 327 L 170.5 325 Z " /><path fill="rgb(159,158,158)" stroke="rgb(159,158,158)" stroke-width="1" opacity="0.996078431372549" d="M 146.5 337 L 147.5 339 L 146.5 337 Z " /><path fill="rgb(159,158,158)" stroke="rgb(159,158,158)" stroke-width="1" opacity="0.996078431372549" d="M 187.5 340 L 188.5 342 L 187.5 340 Z " /><path fill="rgb(196,198,200)" stroke="rgb(196,198,200)" stroke-width="1" opacity="0.26666666666666666" d="M 164.5 0 L 167.5 0 L 224 33.5 L 222.5 33 L 167.5 1 L 164.5 1 L 108.5 34 L 109.5 32 L 164.5 0 Z " /><path fill="rgb(196,198,200)" stroke="rgb(196,198,200)" stroke-width="1" opacity="0.26666666666666666" d="M 165.5 36 L 223 68.5 L 221.5 69 L 165.5 37 L 110.5 69 L 111.5 67 L 165.5 36 Z " /><path fill="rgb(196,198,200)" stroke="rgb(196,198,200)" stroke-width="1" opacity="0.26666666666666666" d="M 163.5 56 L 165 56.5 L 76 108.5 L 162 158 Q 163.1 160.7 160.5 160 L 97 197.5 L 99.5 202 L 101.5 201 L 102.5 203 L 101 202.5 L 100.5 204 L 98 203 L 96 199.5 L 96 196 L 160 160 Q 161.1 157.3 158.5 158 L 75 110 Q 73.5 106.3 76.5 107 L 163.5 56 Z " /><path fill="rgb(196,198,200)" stroke="rgb(196,198,200)" stroke-width="1" opacity="0.26666666666666666" d="M 167.5 56 L 284 123.5 L 282.5 123 L 168.5 58 L 167.5 56 Z " /><path fill="rgb(196,198,200)" stroke="rgb(196,198,200)" stroke-width="1" opacity="0.26666666666666666" d="M 164.5 92 L 169.5 93 L 253 141.5 L 251.5 142 L 176.5 98 L 167.5 93 L 164.5 93 L 139 108.5 L 223 157.5 L 221.5 158 L 137 108.5 L 164.5 92 Z " /><path fill="rgb(196,198,200)" stroke="rgb(196,198,200)" stroke-width="1" opacity="0.26666666666666666" d="M 49.5 156 L 54 158.5 L 52.5 159 L 49.5 156 Z " /><path fill="rgb(196,198,200)" stroke="rgb(196,198,200)" stroke-width="1" opacity="0.26666666666666666" d="M 47.5 157 L 48 159.5 L 47 159.5 L 47.5 157 Z " /><path fill="rgb(196,198,200)" stroke="rgb(196,198,200)" stroke-width="1" opacity="0.26666666666666666" d="M 55.5 159 L 56.5 161 L 55.5 159 Z " /><path fill="rgb(196,198,200)" stroke="rgb(196,198,200)" stroke-width="1" opacity="0.26666666666666666" d="M 222.5 160 L 221.5 162 L 156 199.5 L 172 210.5 L 170.5 210 L 155 199.5 L 222.5 160 Z " /><path fill="rgb(196,198,200)" stroke="rgb(196,198,200)" stroke-width="1" opacity="0.26666666666666666" d="M 58.5 161 L 62 163.5 L 60.5 163 L 58.5 161 Z " /><path fill="rgb(196,198,200)" stroke="rgb(196,198,200)" stroke-width="1" opacity="0.26666666666666666" d="M 47.5 162 L 48 167.5 L 47 167.5 L 47.5 162 Z " /><path fill="rgb(196,198,200)" stroke="rgb(196,198,200)" stroke-width="1" opacity="0.26666666666666666" d="M 63.5 164 L 76 171.5 L 74.5 171 L 64.5 166 L 63.5 164 Z " /><path fill="rgb(196,198,200)" stroke="rgb(196,198,200)" stroke-width="1" opacity="0.26666666666666666" d="M 77.5 172 L 78.5 174 L 77.5 172 Z " /><path fill="rgb(196,198,200)" stroke="rgb(196,198,200)" stroke-width="1" opacity="0.26666666666666666" d="M 78.5 188 L 79 191.5 L 78 191.5 L 78.5 188 Z " /><path fill="rgb(196,198,200)" stroke="rgb(196,198,200)" stroke-width="1" opacity="0.26666666666666666" d="M 104.5 203 L 105.5 205 L 104.5 203 Z " /><path fill="rgb(196,198,200)" stroke="rgb(196,198,200)" stroke-width="1" opacity="0.26666666666666666" d="M 107.5 205 L 108.5 207 L 107.5 205 Z " /><path fill="rgb(196,198,200)" stroke="rgb(196,198,200)" stroke-width="1" opacity="0.26666666666666666" d="M 110.5 207 L 111.5 209 L 110.5 207 Z " /><path fill="rgb(196,198,200)" stroke="rgb(196,198,200)" stroke-width="1" opacity="0.26666666666666666" d="M 113.5 209 L 114.5 211 L 113.5 209 Z " /><path fill="rgb(196,198,200)" stroke="rgb(196,198,200)" stroke-width="1" opacity="0.26666666666666666" d="M 116.5 211 L 119.5 215 L 123 216.5 L 121.5 217 L 116 212.5 L 116.5 211 Z " /><path fill="rgb(196,198,200)" stroke="rgb(196,198,200)" stroke-width="1" opacity="0.26666666666666666" d="M 173.5 211 L 174.5 213 L 173.5 211 Z " /><path fill="rgb(196,198,200)" stroke="rgb(196,198,200)" stroke-width="1" opacity="0.26666666666666666" d="M 176.5 213 L 185 219.5 L 182.5 218 Q 177.5 216.5 176.5 213 Z " /><path fill="rgb(196,198,200)" stroke="rgb(196,198,200)" stroke-width="1" opacity="0.26666666666666666" d="M 130.5 220 L 131.5 222 L 130.5 220 Z " /><path fill="rgb(196,198,200)" stroke="rgb(196,198,200)" stroke-width="1" opacity="0.26666666666666666" d="M 186.5 220 L 187.5 222 L 186.5 220 Z " /><path fill="rgb(196,198,200)" stroke="rgb(196,198,200)" stroke-width="1" opacity="0.26666666666666666" d="M 133.5 222 L 134.5 224 L 133.5 222 Z " /><path fill="rgb(196,198,200)" stroke="rgb(196,198,200)" stroke-width="1" opacity="0.26666666666666666" d="M 189.5 222 L 190.5 224 L 189.5 222 Z " /><path fill="rgb(196,198,200)" stroke="rgb(196,198,200)" stroke-width="1" opacity="0.26666666666666666" d="M 136.5 224 L 137.5 226 L 136.5 224 Z " /><path fill="rgb(196,198,200)" stroke="rgb(196,198,200)" stroke-width="1" opacity="0.26666666666666666" d="M 192.5 224 L 193.5 226 L 192.5 224 Z " /><path fill="rgb(196,198,200)" stroke="rgb(196,198,200)" stroke-width="1" opacity="0.26666666666666666" d="M 139.5 226 L 140.5 228 L 139.5 226 Z " /><path fill="rgb(196,198,200)" stroke="rgb(196,198,200)" stroke-width="1" opacity="0.26666666666666666" d="M 195.5 226 L 196.5 228 L 195.5 226 Z " /><path fill="rgb(196,198,200)" stroke="rgb(196,198,200)" stroke-width="1" opacity="0.26666666666666666" d="M 142.5 228 L 143.5 230 L 142.5 228 Z " /><path fill="rgb(196,198,200)" stroke="rgb(196,198,200)" stroke-width="1" opacity="0.26666666666666666" d="M 198.5 228 L 199.5 230 L 198.5 228 Z " /><path fill="rgb(196,198,200)" stroke="rgb(196,198,200)" stroke-width="1" opacity="0.26666666666666666" d="M 148.5 232 L 149.5 234 L 148.5 232 Z " /><path fill="rgb(196,198,200)" stroke="rgb(196,198,200)" stroke-width="1" opacity="0.26666666666666666" d="M 151.5 234 L 152.5 236 L 151.5 234 Z " /><path fill="rgb(196,198,200)" stroke="rgb(196,198,200)" stroke-width="1" opacity="0.26666666666666666" d="M 208.5 235 L 228 248.5 L 226.5 248 L 209.5 237 L 208.5 235 Z " /><path fill="rgb(196,198,200)" stroke="rgb(196,198,200)" stroke-width="1" opacity="0.26666666666666666" d="M 154.5 236 L 155.5 238 L 154.5 236 Z " /><path fill="rgb(196,198,200)" stroke="rgb(196,198,200)" stroke-width="1" opacity="0.26666666666666666" d="M 78.5 238 Q 78.3 242.7 81.5 244 L 89 248.5 L 87.5 248 L 79 244 L 78.5 238 Z " /><path fill="rgb(196,198,200)" stroke="rgb(196,198,200)" stroke-width="1" opacity="0.26666666666666666" d="M 157.5 238 L 158.5 240 L 157.5 238 Z " /><path fill="rgb(196,198,200)" stroke="rgb(196,198,200)" stroke-width="1" opacity="0.26666666666666666" d="M 15.5 241 L 16.5 243 L 15.5 241 Z " /><path fill="rgb(196,198,200)" stroke="rgb(196,198,200)" stroke-width="1" opacity="0.26666666666666666" d="M 252.5 242 L 251.5 244 L 235.5 253 L 236.5 251 L 252.5 242 Z " /><path fill="rgb(196,198,200)" stroke="rgb(196,198,200)" stroke-width="1" opacity="0.26666666666666666" d="M 168.5 245 L 169.5 247 L 168.5 245 Z " /><path fill="rgb(196,198,200)" stroke="rgb(196,198,200)" stroke-width="1" opacity="0.26666666666666666" d="M 171.5 247 L 177 251.5 L 174.5 250 L 171.5 247 Z " /><path fill="rgb(196,198,200)" stroke="rgb(196,198,200)" stroke-width="1" opacity="0.26666666666666666" d="M 90.5 249 L 120 266.5 L 118.5 267 L 96.5 253 L 94.5 253 L 90.5 249 Z " /><path fill="rgb(196,198,200)" stroke="rgb(196,198,200)" stroke-width="1" opacity="0.26666666666666666" d="M 229.5 249 L 230.5 251 L 229.5 249 Z " /><path fill="rgb(196,198,200)" stroke="rgb(196,198,200)" stroke-width="1" opacity="0.26666666666666666" d="M 178.5 252 L 179.5 254 L 178.5 252 Z " /><path fill="rgb(196,198,200)" stroke="rgb(196,198,200)" stroke-width="1" opacity="0.26666666666666666" d="M 181.5 254 L 182.5 256 L 181.5 254 Z " /><path fill="rgb(196,198,200)" stroke="rgb(196,198,200)" stroke-width="1" opacity="0.26666666666666666" d="M 184.5 256 L 185.5 258 L 184.5 256 Z " /><path fill="rgb(196,198,200)" stroke="rgb(196,198,200)" stroke-width="1" opacity="0.26666666666666666" d="M 187.5 258 L 195 263.5 L 193.5 263 Q 188.5 261.5 187.5 258 Z " /><path fill="rgb(196,198,200)" stroke="rgb(196,198,200)" stroke-width="1" opacity="0.26666666666666666" d="M 48.5 261 L 164.5 328 L 167.5 328 L 283.5 261 L 283.5 262 L 169.5 328 L 164.5 329 L 58.5 268 L 48.5 262 L 48.5 261 Z " /><path fill="rgb(196,198,200)" stroke="rgb(196,198,200)" stroke-width="1" opacity="0.26666666666666666" d="M 196.5 264 L 197.5 266 L 196.5 264 Z " /><path fill="rgb(196,198,200)" stroke="rgb(196,198,200)" stroke-width="1" opacity="0.26666666666666666" d="M 199.5 266 L 205 270.5 L 204.5 272 L 202.5 269 L 199.5 266 Z " /><path fill="rgb(196,198,200)" stroke="rgb(196,198,200)" stroke-width="1" opacity="0.26666666666666666" d="M 121.5 267 L 153.5 285 L 157 288.5 L 155.5 288 L 127.5 271 L 125.5 271 L 121.5 267 Z " /><path fill="rgb(196,198,200)" stroke="rgb(196,198,200)" stroke-width="1" opacity="0.26666666666666666" d="M 195.5 275 L 198 275.5 L 162.5 292 L 159 289.5 L 160.5 289 L 163.5 291 L 195.5 275 Z " /><path fill="rgb(196,198,200)" stroke="rgb(196,198,200)" stroke-width="1" opacity="0.26666666666666666" d="M 50.5 281 L 96 307.5 L 94.5 307 L 51.5 283 L 50.5 281 Z " /><path fill="rgb(196,198,200)" stroke="rgb(196,198,200)" stroke-width="1" opacity="0.26666666666666666" d="M 279.5 282 L 278.5 284 L 184.5 338 L 185.5 336 L 279.5 282 Z " /><path fill="rgb(196,198,200)" stroke="rgb(196,198,200)" stroke-width="1" opacity="0.26666666666666666" d="M 97.5 308 L 148 337.5 L 146.5 337 L 98.5 310 L 97.5 308 Z " /><path fill="rgb(196,198,200)" stroke="rgb(196,198,200)" stroke-width="1" opacity="0.26666666666666666" d="M 48.5 316 L 117 355.5 L 115.5 356 L 52.5 320 L 48.5 316 Z " /><path fill="rgb(196,198,200)" stroke="rgb(196,198,200)" stroke-width="1" opacity="0.26666666666666666" d="M 283.5 316 L 282.5 318 L 228.5 349 L 229.5 347 L 283.5 316 Z " /><path fill="rgb(196,198,200)" stroke="rgb(196,198,200)" stroke-width="1" opacity="0.26666666666666666" d="M 147.5 339 L 146.5 341 L 144.5 342 L 145.5 340 L 147.5 339 Z " /><path fill="rgb(196,198,200)" stroke="rgb(196,198,200)" stroke-width="1" opacity="0.26666666666666666" d="M 184.5 339 L 214.5 356 L 226.5 349 L 225.5 351 L 213.5 357 L 188.5 343 L 184.5 339 Z " /><path fill="rgb(196,198,200)" stroke="rgb(196,198,200)" stroke-width="1" opacity="0.26666666666666666" d="M 142.5 342 L 141.5 344 L 119.5 356 L 119.5 355 L 142.5 342 Z " /><path fill="rgb(160,159,159)" stroke="rgb(160,159,159)" stroke-width="1" opacity="1" d="M 164.5 1 L 168 1 Q 166.9 3.7 169.5 3 L 179.5 9 L 182 9 Q 180.9 11.7 183.5 11 L 194.5 18 L 201 20 Q 199.9 22.7 202.5 22 L 223 34.5 L 222.5 68 L 215 65 Q 216.1 62.3 213.5 63 L 200.5 55 L 196 54 Q 197.1 51.3 194.5 52 L 174.5 40 L 170 39 Q 171.1 36.3 168.5 37 L 164.5 36 L 162 37 Q 163.3 40 159.5 39 L 131.5 55 L 128.5 58 L 117 63 Q 118.3 66 114.5 65 L 109.5 68 L 109 34.5 L 112 33 Q 110.8 30 114.5 31 L 138 18 Q 136.8 15 140.5 16 L 157 7 Q 155.8 4 159.5 5 L 164.5 1 Z " /><path fill="rgb(160,159,159)" stroke="rgb(160,159,159)" stroke-width="1" opacity="1" d="M 164.5 57 L 167.5 57 Q 172.3 62.2 180.5 64 L 188.5 70 L 221.5 89 L 225.5 90 L 228.5 93 L 283 124.5 L 283 259.5 L 284 260.5 L 267 269 Q 268.3 272 264.5 271 L 260 273 Q 261.3 276 257.5 275 L 252.5 279 L 234 288 Q 235.3 291 231.5 290 L 226.5 294 L 208 303 Q 209.3 306 205.5 305 L 182 318 Q 183.3 321 179.5 320 L 165.5 328 L 128.5 306 L 124 305 Q 125.1 302.3 122.5 303 L 97.5 288 L 91 286 Q 92.1 283.3 89.5 284 L 76.5 276 L 72 275 Q 73.1 272.3 70.5 273 L 65 271 Q 66.1 268.3 63.5 269 L 55.5 264 L 53 264 Q 54.1 261.3 51.5 262 L 48 260.5 L 49 259.5 L 49 167.5 L 49 163.5 L 48 158.5 L 49.5 158 L 67.5 169 L 73.5 171 L 77 174.5 Q 75.2 185.3 78 191.5 L 77 194.5 L 78 196.5 L 77 197.5 L 77 234.5 L 78 236.5 L 77 240.5 L 79.5 245 L 88.5 249 L 91.5 252 L 138.5 279 L 143 280 Q 141.9 282.7 144.5 282 L 156.5 290 Q 162.6 289.4 164.5 293 L 165 291 L 171.5 289 L 189.5 279 L 192.5 279 L 198.5 276 L 206 270.5 L 129.5 218 L 123.5 217 L 117 212.5 L 115.5 210 L 100.5 201 L 99 201.5 L 97 197 L 108 192 Q 106.8 189 110.5 190 Q 113.8 185.4 120 185 Q 118.8 182 122.5 183 L 134 177 Q 132.8 174 136.5 175 L 163 160 Q 164.1 157.3 161.5 158 L 76 108.5 L 92 100 Q 90.8 97 94.5 98 L 164.5 57 Z M 166 91 L 151 100 Q 148 99 149 102 L 145 103 L 136 109 L 221 157 L 222 161 L 218 162 L 205 170 Q 202 169 203 172 L 199 173 L 157 198 Q 154 197 155 200 L 172 212 Q 174 211 173 214 L 176 214 L 190 223 L 234 254 L 253 244 L 254 243 L 254 141 L 193 106 Q 189 107 190 104 L 166 91 Z " /><path fill="rgb(160,159,159)" stroke="rgb(160,159,159)" stroke-width="1" opacity="1" d="M 29.5 135 L 30 249 L 1 232.5 L 1 152.5 L 3.5 150 L 29.5 135 Z " /><path fill="rgb(160,159,159)" stroke="rgb(160,159,159)" stroke-width="1" opacity="1" d="M 302.5 135 L 331 152.5 L 331 232.5 L 329.5 234 L 302 249 L 302.5 135 Z " /><path fill="rgb(160,159,159)" stroke="rgb(160,159,159)" stroke-width="1" opacity="1" d="M 49.5 282 L 61.5 289 L 64 289 Q 62.9 291.7 65.5 291 L 71 293 Q 69.9 295.7 72.5 295 L 85.5 303 L 90 304 Q 88.9 306.7 91.5 306 L 95.5 309 L 97 308.5 Q 96.3 310.8 98.5 310 L 130.5 329 L 135 330 Q 133.9 332.7 136.5 332 L 147 338.5 L 144 340 L 143.5 342 Q 142 339.5 140.5 343 L 137 344 Q 138.3 347 134.5 346 L 129.5 350 L 119.5 355 L 116.5 355 L 111 353 Q 112.1 350.3 109.5 351 L 89.5 339 L 85 338 Q 86.1 335.3 83.5 336 L 78 334 Q 79.1 331.3 76.5 332 L 66.5 327 L 63.5 324 L 59 323 Q 60.1 320.3 57.5 321 L 49 315.5 L 49.5 282 Z " /><path fill="rgb(160,159,159)" stroke="rgb(160,159,159)" stroke-width="1" opacity="1" d="M 280.5 282 L 283 282.5 L 283 315.5 L 281.5 317 Q 279.3 316.3 280 318.5 Q 278.3 316.9 276.5 320 L 273 321 Q 274.3 324 270.5 323 L 266 325 Q 267.3 328 263.5 327 L 254 332 Q 255.3 335 251.5 334 L 247 336 Q 248.3 339 244.5 338 L 228 347 L 227.5 349 Q 226 346.5 224.5 350 L 221 351 Q 222.3 354 218.5 353 Q 217.1 355.6 212.5 355 L 202.5 350 L 199.5 347 L 195 346 Q 196.1 343.3 193.5 344 L 185 338.5 L 190 336 Q 188.8 333 192.5 334 L 261 295 Q 259.8 292 263.5 293 L 268 291 Q 266.8 288 270.5 289 L 280 284 L 280.5 282 Z " /></svg>